# xmcd
#
# Track frame offsets:
#	183
#	20150
#	36740
#	50055
#	66443
#	80133
#	93320
#	108775
#	123925
#	138390
#	155273
#	171483
#	187975
#	201703
#	216500
#	232365
#
# Disc length: 3305 seconds
#
# Revision: 1
# Processed by: cddbd v1.4PL0 Copyright (c) Steve Scherf et al.
# Submitted via: audiograbber 1.81.02
#
DISCID=010ce710
DTITLE=Al Bano and Romina Power - Romantica
DYEAR=1900
DGENRE=Ballad
TTITLE0=Sharazan
TTITLE1=Tu soltanto tu
TTITLE2=It's forever
TTITLE3=Magic oh magic
TTITLE4=Canto di liberta
TTITLE5=Primma notte d'amore
TTITLE6=Canzone blue
TTITLE7=Quando un amore se ne va
TTITLE8=Felicita
TTITLE9=Al ritmo di beguine
TTITLE10=Che angelo sei
TTITLE11=Ciao, Aufwiedersehen, Goodbye
TTITLE12=Abbandonati
TTITLE13=Parigi e bella
TTITLE14=Angeli
TTITLE15=Ci sara
EXTD=
EXTT0=
EXTT1=
EXTT2=
EXTT3=
EXTT4=
EXTT5=
EXTT6=
EXTT7=
EXTT8=
EXTT9=
EXTT10=
EXTT11=
EXTT12=
EXTT13=
EXTT14=
EXTT15=
PLAYORDER=
